<?xml version="1.0" encoding="UTF-8" standalone="no"?>
<svg
   xmlns:dc="http://purl.org/dc/elements/1.1/"
   xmlns:cc="http://creativecommons.org/ns#"
   xmlns:rdf="http://www.w3.org/1999/02/22-rdf-syntax-ns#"
   xmlns:svg="http://www.w3.org/2000/svg"
   xmlns="http://www.w3.org/2000/svg"
   xmlns:sodipodi="http://sodipodi.sourceforge.net/DTD/sodipodi-0.dtd"
   xmlns:inkscape="http://www.inkscape.org/namespaces/inkscape"
   version="1.1"
   x="0"
   y="0"
   width="256"
   height="256"
   viewBox="0 0 303.278 480.459"
   id="svg3745"
   sodipodi:docname="logo.svg"
   inkscape:version="0.92.4 (5da689c313, 2019-01-14)">
  <metadata
     id="metadata3751">
    <rdf:RDF>
      <cc:Work
         rdf:about="">
        <dc:format>image/svg+xml</dc:format>
        <dc:type
           rdf:resource="http://purl.org/dc/dcmitype/StillImage" />
        <dc:title />
      </cc:Work>
    </rdf:RDF>
  </metadata>
  <defs
     id="defs3749" />
  <sodipodi:namedview
     pagecolor="#ffffff"
     bordercolor="#666666"
     borderopacity="1"
     objecttolerance="10"
     gridtolerance="10"
     guidetolerance="10"
     inkscape:pageopacity="0"
     inkscape:pageshadow="2"
     inkscape:window-width="1920"
     inkscape:window-height="1001"
     id="namedview3747"
     showgrid="false"
     inkscape:zoom="1.6817251"
     inkscape:cx="46.092628"
     inkscape:cy="111.71208"
     inkscape:window-x="-9"
     inkscape:window-y="-9"
     inkscape:window-maximized="1"
     inkscape:current-layer="Layer_2">
    <inkscape:grid
       type="xygrid"
       id="grid3955" />
  </sodipodi:namedview>
  <g
     id="Layer_2">
    <path
       id="path62022"
       d="m 110.62305,62.597656 c -2.202,0 -4.57043,0.244985 -6.60743,0.708985 -12.469935,2.73 -21.523437,13.412015 -21.523432,26.541015 0,10.846004 6.191671,20.032114 15.388671,24.412114 1.103,0.543 2.397891,1.03373 3.587891,1.42773 1.153,0.383 2.3864,0.83345 3.60937,1.06445 0.36401,0.082 0.73157,0.15852 1.10157,0.22852 1.002,3.525 2.60472,12.16733 3.13672,32.23633 0.405,15.27 -0.0389,29.34383 -0.0469,29.54882 l -0.006,0.22071 0.002,0.21875 c 0.006,0.414 0.4243,41.77906 -15.595698,69.66406 -49.65,86.427 -73.127047,132.04216 -84.123047,156.66016 -9.411,21.085 -9.50320314,26.43059 -9.53320312,29.43359 l -0.00585938,0.66797 c -0.01,1.113 -0.009,2.21345 0,3.31445 0.002,0.225 0.00285938,0.47808 0.00585938,0.70508 0.12499999,9.874 1.18457812,20.38167 10.26757812,28.38867 9.384,8.27 25.893141,12.13235 53.244141,12.40235 1.037,0.011 2.215156,0.0176 3.285156,0.0176 H 236.58984 c 29.25,0 46.6633,-3.83392 56.4043,-12.41992 9.09,-8.012 10.14553,-18.53211 10.26953,-28.41211 0.003,-0.222 0.006,-0.47136 0.008,-0.69336 0.009,-1.096 0.009,-2.19373 -0.002,-3.30273 l -0.006,-0.67188 c -0.03,-3 -0.12586,-8.33728 -9.50586,-29.36328 -10.983,-24.603 -34.45734,-70.22156 -84.15234,-156.72656 -15.939,-27.747 -15.59975,-69.1403 -15.59375,-69.6543 l 0.002,-0.22265 -0.008,-0.21875 c -0.005,-0.158 -0.45264,-14.25864 -0.0469,-29.55664 0.531,-20.044 2.13086,-28.68385 3.13086,-32.21485 0.555,-0.106 1.10149,-0.22642 1.64454,-0.35742 1.193,-0.25 2.39548,-0.71437 3.52148,-1.10937 1.153,-0.404 2.41337,-0.90422 3.48437,-1.44922 9.005,-4.44 15.04297,-13.52928 15.04297,-24.238284 0,-15.281 -12.25348,-27.25 -27.89648,-27.25 z m 6.77343,18.292969 h 75.49219 c 5.469,0 9.60352,3.856031 9.60352,8.957031 0,4.98 -3.97558,8.756422 -9.26758,8.857422 -3.075,0.063 -6.0403,1.293704 -8.4043,3.472652 -0.097,0.089 -0.19311,0.18044 -0.28711,0.27344 -0.912,0.893 -1.81878,2.01027 -2.67578,3.57227 -2.877,5.283 -5.35586,15.69945 -6.13086,40.81445 -0.18152,5.87632 -0.21919,11.35333 -0.21484,16.31055 0.14054,0.77727 0.21461,1.63319 0.19922,2.57422 -0.042,2.56607 -0.073,5.13701 -0.11914,7.70898 0.0469,2.63227 0.0955,4.73879 0.11914,5.5293 0.003,0.076 0.005,0.15103 0.006,0.20703 -0.033,3.719 -0.003,43.41911 15.59375,74.28711 0.8,1.585 1.64515,3.15508 2.53515,4.70508 8.278,14.409 29.39344,51.17465 49.39844,88.22265 1.034,1.915 2.0658,3.8301 3.0918,5.7461 26.426,49.27 35.19572,70.21111 37.63672,78.41211 0.075,0.239 0.14398,0.49784 0.20898,0.71484 0.637,2.218 0.79174,3.40711 0.80274,4.03711 v 0.67773 c -0.002,9.654 -0.20494,14.92671 -4.08594,18.34571 -5.907,5.207 -20.74813,7.84061 -44.20313,7.84961 H 66.578125 c -23.454,-0.009 -38.292219,-2.64261 -44.199219,-7.84961 -3.882,-3.421 -4.083937,-8.69457 -4.085937,-18.35157 v -0.67187 c 0.009,-0.613 0.155953,-1.75533 0.751953,-3.86133 0.067,-0.231 0.14075,-0.50472 0.21875,-0.76172 2.395,-8.124 11.119547,-29.02959 37.685547,-78.55859 0.94,-1.755 1.884031,-3.51063 2.832031,-5.26563 20.095,-37.236 41.36397,-74.2647 49.66797,-88.7207 0.72,-1.255 1.41322,-2.52373 2.07422,-3.80273 15.804,-30.537 16.06511,-70.2269 16.03711,-74.96289 -0.001,-0.072 0,-0.14518 0,-0.20118 0.06,-1.981 0.47504,-16.56331 -0.0117,-32.32031 -0.762,-24.71 -3.17428,-35.18587 -5.98828,-40.54687 -0.904,-1.708 -1.86603,-2.8998 -2.83203,-3.8418 -2.407,-2.345 -5.47783,-3.680189 -8.67383,-3.742189 -5.294,-0.1 -9.26953,-3.877375 -9.26953,-8.859375 0,-4.998 3.99354,-8.788765 9.31054,-8.884765 0.086,-0.047 7.19278,-0.07227 7.30078,-0.07227 z"
       inkscape:connector-curvature="0" />
    <path
       id="path63310"
       d="m 170.49609,92.308594 c -0.005,-0.03731 -0.32577,0.23152 -0.63086,0.517578 0.036,0.0159 0.0745,0.02552 0.10938,0.04492 0.19286,-0.196715 0.42121,-0.42669 0.46875,-0.482422 0.0384,-0.04503 0.0539,-0.07135 0.0527,-0.08008 z"
       inkscape:connector-curvature="0" />
    <path
       d="m 85.245,318.126 c 0.914,-0.871 5.692,-3.962 10.189,-5.043 1.054,-0.253 2.113,-0.386 3.123,-0.362 2.093,0.049 4.32,0.867 6.768,2.043 4.482,2.149 9.751,5.484 16.453,7.398 1.903,0.545 4.201,0.697 6.786,0.558 8.994,-0.478 21.365,-4.485 31.834,-7.568 3.158,-0.93 6.142,-1.775 8.807,-2.413 1.317,-0.316 2.756,-0.522 4.285,-0.63 1.695,-0.12 3.534,-0.117 5.476,-0.011 13.868,0.773 32.369,6.71 39.533,8.843 0.491,0.146 0.927,0.274 1.306,0.381 42.786,77.339 54.35,105.563 56.259,112.692 0.534,1.994 0.418,5.568 0.326,7.951 -0.009,0.19 -0.014,0.375 -0.02,0.555 -0.089,2.214 -1.05,4.355 -2.561,5.8 -0.096,0.086 -0.195,0.196 -0.296,0.277 -0.738,0.662 -1.633,1.187 -2.634,1.507 -9.465,3.032 -23.802,3.557 -34.291,3.557 h -169.9 c -10.466,0 -24.822,-0.523 -34.29,-3.556 -0.993,-0.318 -1.879,-0.84 -2.615,-1.493 -1.695,-1.506 -2.789,-3.823 -2.871,-6.151 -0.158,-4.565 -0.122,-6.896 0.298,-8.486 2.133,-7.947 9.212,-28.539 58.035,-115.85"
       id="path62240"
       inkscape:connector-curvature="0"
       style="fill:#000000" />
    <text
       xml:space="preserve"
       style="font-style:normal;font-weight:normal;font-size:57.69651031px;line-height:1.25;font-family:sans-serif;letter-spacing:0px;word-spacing:0px;fill:#000000;fill-opacity:1;stroke:none;stroke-width:1.44241273"
       x="100.76064"
       y="314.73141"
       id="text3959"
       transform="scale(1.0543659,0.94843734)"><tspan
         sodipodi:role="line"
         id="tspan3957"
         x="100.76064"
         y="314.73141"
         style="stroke-width:1.44241273">#</tspan></text>
    <text
       xml:space="preserve"
       style="font-style:normal;font-weight:normal;font-size:28.41195869px;line-height:1.25;font-family:sans-serif;letter-spacing:0px;word-spacing:0px;fill:#000000;fill-opacity:1;stroke:none;stroke-width:0.71029902"
       x="169.05452"
       y="243.71819"
       id="text3959-2"
       transform="scale(0.9412406,1.0624276)"><tspan
         sodipodi:role="line"
         id="tspan3957-9"
         x="169.05452"
         y="243.71819"
         style="stroke-width:0.71029902">#</tspan></text>
    <text
       xml:space="preserve"
       style="font-style:normal;font-weight:normal;font-size:34.80737305px;line-height:1.25;font-family:sans-serif;letter-spacing:0px;word-spacing:0px;fill:#000000;fill-opacity:1;stroke:none;stroke-width:0.8701843"
       x="121.78887"
       y="239.68898"
       id="text3959-8"
       transform="scale(1.0403583,0.9612073)"><tspan
         sodipodi:role="line"
         id="tspan3957-57"
         x="121.78887"
         y="239.68898"
         style="stroke-width:0.8701843">#</tspan></text>
    <text
       xml:space="preserve"
       style="font-style:normal;font-weight:normal;font-size:40px;line-height:1.25;font-family:sans-serif;letter-spacing:0px;word-spacing:0px;fill:#000000;fill-opacity:1;stroke:none"
       x="113.2616"
       y="61.51659"
       id="text3959-5"><tspan
         sodipodi:role="line"
         id="tspan3957-51"
         x="113.2616"
         y="61.51659">#</tspan></text>
    <text
       xml:space="preserve"
       style="font-style:normal;font-weight:normal;font-size:52.74089432px;line-height:1.25;font-family:sans-serif;letter-spacing:0px;word-spacing:0px;fill:#000000;fill-opacity:1;stroke:none;stroke-width:1.31852233"
       x="140.29504"
       y="58.609875"
       id="text3959-68"
       transform="scale(1.1534358,0.86697502)"><tspan
         sodipodi:role="line"
         id="tspan3957-1"
         x="140.29504"
         y="58.609875"
         style="stroke-width:1.31852233">#</tspan></text>
    <text
       xml:space="preserve"
       style="font-style:normal;font-weight:normal;font-size:27.75594711px;line-height:1.25;font-family:sans-serif;letter-spacing:0px;word-spacing:0px;fill:#000000;fill-opacity:1;stroke:none;stroke-width:0.69389868"
       x="158.02425"
       y="24.799101"
       id="text3959-7"
       transform="scale(0.89525169,1.1170043)"><tspan
         sodipodi:role="line"
         id="tspan3957-4"
         x="158.02425"
         y="24.799101"
         style="stroke-width:0.69389868">#</tspan></text>
    <text
       xml:space="preserve"
       style="font-style:normal;font-weight:normal;font-size:23.80443382px;line-height:1.25;font-family:sans-serif;letter-spacing:0px;word-spacing:0px;fill:#000000;fill-opacity:1;stroke:none;stroke-width:0.59511083"
       x="132.11182"
       y="216.74152"
       id="text3959-54"
       transform="scale(1.1234248,0.89013525)"><tspan
         sodipodi:role="line"
         id="tspan3957-0"
         x="132.11182"
         y="216.74152"
         style="stroke-width:0.59511083">#</tspan></text>
    <text
       xml:space="preserve"
       style="font-style:normal;font-weight:normal;font-size:33.46819687px;line-height:1.25;font-family:sans-serif;letter-spacing:0px;word-spacing:0px;fill:#000000;fill-opacity:1;stroke:none;stroke-width:0.83670497"
       x="127.80095"
       y="159.7211"
       id="text3959-54-0"
       transform="scale(1.0253976,0.97523144)"><tspan
         sodipodi:role="line"
         id="tspan3957-0-4"
         x="127.80095"
         y="159.7211"
         style="stroke-width:0.83670497">#</tspan></text>
    <text
       xml:space="preserve"
       style="font-style:normal;font-weight:normal;font-size:18.97721863px;line-height:1.25;font-family:sans-serif;letter-spacing:0px;word-spacing:0px;fill:#000000;fill-opacity:1;stroke:none;stroke-width:0.47443047"
       x="134.75839"
       y="125.68264"
       id="text3959-8-5"
       transform="scale(1.1097884,0.90107266)"><tspan
         sodipodi:role="line"
         id="tspan3957-57-4"
         x="134.75839"
         y="125.68264"
         style="stroke-width:0.47443047">#</tspan></text>
    <path
       style="fill:#00aad4;stroke-width:0.5946275"
       d="m 51.863594,452.92898 c -12.713097,-0.87948 -19.762233,-2.56043 -22.437055,-5.3504 -1.674532,-1.74661 -1.777476,-2.14598 -1.959878,-7.60329 -0.174772,-5.22904 -0.018,-6.25308 1.701071,-11.11152 5.512769,-15.58017 22.156577,-48.72567 48.025409,-95.64072 8.660437,-15.70635 9.059194,-16.20388 14.919171,-18.61445 5.65197,-2.32501 8.105398,-1.97955 17.037408,2.39894 10.33814,5.0678 12.72985,5.83373 18.19316,5.82627 5.98286,-0.008 11.73277,-1.2178 27.82934,-5.85457 15.27022,-4.39873 18.88647,-4.97606 26.68083,-4.25956 8.68189,0.79808 17.01445,2.74186 36.97886,8.62623 0.49057,0.14459 3.30019,4.70722 6.24359,10.13918 26.63199,49.14848 41.00801,77.66675 48.1369,95.49107 2.79255,6.98221 2.81096,7.07376 2.60942,12.97983 l -0.20298,5.94802 -2.15987,1.97839 c -2.24385,2.05531 -5.58204,3.06479 -15.08433,4.56155 -4.93967,0.77808 -195.795258,1.22634 -206.511046,0.48503 z"
       id="path4063"
       inkscape:connector-curvature="0" />
    <path
       style="fill:#216778;stroke-width:0.5946275"
       d="M 50.178435,479.67871 C 25.123369,477.99219 10.247079,471.52922 4.3050019,459.74909 1.8050727,454.793 1.2695321,452.51834 0.5573414,443.83124 -0.15462875,435.14684 0.292826,430.91091 2.7074653,423.47664 9.735978,401.83703 40.770857,342.00565 85.806222,263.2726 c 4.579256,-8.00567 9.495279,-16.95836 10.924502,-19.89486 4.978416,-10.2287 9.103886,-25.37908 11.182626,-41.06704 2.91592,-22.00607 1.90434,-78.14846 -1.52819,-84.81388 -0.27513,-0.53427 -1.42529,-1.14494 -2.5559,-1.35704 -6.75939,-1.26807 -15.238974,-8.09554 -18.428764,-14.8382 -7.427201,-15.699814 1.941833,-34.186721 19.143554,-37.773917 4.37476,-0.9123 89.80266,-0.914119 94.18992,-0.002 14.06519,2.924157 23.74108,16.672428 21.38866,30.390694 -0.95444,5.5659 -3.11916,9.916193 -7.04356,14.155023 -3.3891,3.66062 -9.5386,7.30079 -13.63032,8.0684 -1.1306,0.21211 -2.28076,0.82278 -2.5559,1.35704 -2.38056,4.62268 -3.9367,36.29307 -3.0425,61.92072 0.79676,22.83497 3.24726,38.4004 8.39642,53.33352 3.00604,8.71786 4.83082,12.30707 17.88578,35.18018 26.39628,46.24791 45.76578,81.91779 60.75091,111.87576 15.11831,30.22424 20.52755,43.2706 21.8334,52.65932 0.64947,4.66952 -0.10563,17.15021 -1.29302,21.37181 -4.51936,16.06785 -19.29761,23.80657 -49.38528,25.8609 -9.94476,0.67901 -191.742678,0.66071 -201.860125,-0.0203 z M 253.023,461.83504 c 14.61696,-1.08923 24.24175,-3.69654 28.17868,-7.63348 2.69443,-2.69443 3.50411,-5.3124 4.0045,-12.94799 0.34033,-5.1932 0.21776,-6.55152 -0.93595,-10.37205 -6.20792,-20.55765 -34.33726,-74.9445 -82.38962,-159.29672 -11.51416,-20.21221 -11.94762,-21.05927 -15.06198,-29.43406 -3.22846,-8.68161 -5.08308,-15.29405 -6.8929,-24.57596 -3.36344,-17.24979 -3.59062,-20.61407 -3.60051,-53.32024 -0.01,-31.4615 0.32632,-37.53986 2.68385,-48.57568 2.44645,-11.45203 6.16032,-15.62824 14.95358,-16.815109 9.17072,-1.237818 11.79974,-11.123477 4.42293,-16.631066 -1.62473,-1.213036 -2.1189,-1.225996 -46.74657,-1.225996 -44.83388,0 -45.11456,0.0075 -46.78331,1.24393 -7.382595,5.470132 -4.7241,15.373553 4.45966,16.613132 4.70761,0.63541 6.734,1.524879 9.27693,4.072039 6.77193,6.7832 9.0071,24.5895 8.49284,67.65754 -0.31786,26.61878 -0.69985,31.42639 -3.7331,46.98276 -1.80992,9.2824 -3.66483,15.89527 -6.89319,24.57465 -3.14504,8.45536 -4.17911,10.4747 -15.47172,30.2133 -45.774851,80.01087 -75.809601,138.08618 -81.977906,158.51278 -1.156747,3.83062 -1.275761,5.17078 -0.931743,10.49189 0.497444,7.69422 1.608644,11.04524 4.435929,13.3773 4.197824,3.46255 14.059885,6.09704 26.318949,7.03069 10.032169,0.76405 194.014951,0.81662 204.190651,0.0583 z"
       id="path4065"
       inkscape:connector-curvature="0" />
    <path
       style="fill:#164450;stroke-width:0.5946275"
       d="m 49.957706,452.57865 c -13.930713,-1.60852 -17.237336,-2.47981 -20.037368,-5.27985 -1.9636,-1.9636 -1.963849,-1.96461 -1.963849,-7.98834 0,-6.70496 0.510453,-8.65865 5.084178,-19.45894 8.819593,-20.82639 47.490477,-94.22489 53.090354,-100.76708 2.68753,-3.13978 7.614751,-5.4222 11.74112,-5.43882 2.207119,-0.009 4.327949,0.57092 7.878819,2.15398 2.67231,1.19138 6.96163,3.10479 9.53183,4.25201 10.20718,4.55606 14.60897,4.23571 40.51861,-2.94889 5.0692,-1.40566 10.42085,-2.83983 11.89255,-3.18705 10.57883,-2.49586 21.2348,-0.99086 47.92839,6.76918 4.04422,1.17568 3.92835,1.00625 15.82996,23.14719 21.21576,39.46833 35.05363,67.21691 41.19437,82.60559 2.75563,6.9056 2.82627,7.24119 2.74661,13.04881 -0.0726,5.29076 -0.23162,6.12139 -1.41467,7.38832 -1.99276,2.13404 -4.23439,3.10633 -10.20339,4.42565 -5.27609,1.16618 -7.77865,1.19743 -108.56845,1.35612 -56.742326,0.0893 -104.104406,0.0543 -105.249064,-0.0779 z"
       id="path4067"
       inkscape:connector-curvature="0" />
    <path
       style="fill:#164450;stroke-width:0.5946275"
       d="M 42.935185,478.76255 C 22.374297,476.27287 9.7829542,469.97426 4.491261,459.5316 1.6885412,454.0007 0.97756804,449.94692 0.93763387,439.26975 0.90100785,429.4771 0.90507605,429.44645 3.0727962,423.19015 10.85856,400.71946 36.286943,351.31446 78.501503,276.63913 c 16.527463,-29.2362 19.475442,-34.83777 22.000037,-41.80305 4.03197,-11.12408 7.19713,-26.21771 8.2634,-39.40544 2.13534,-26.41007 0.67944,-74.54043 -2.36576,-78.20968 -0.35536,-0.42818 -2.0285,-1.18159 -3.71809,-1.67424 -8.057702,-2.34949 -15.511334,-9.50811 -18.195203,-17.475042 -4.644683,-13.787539 3.59629,-29.499599 17.634223,-33.621015 3.95746,-1.161876 54.07156,-1.882617 80.43953,-1.156881 l 17.54151,0.482802 4.49862,2.141382 c 5.93148,2.823431 10.13879,7.028466 12.97565,12.968611 2.06531,4.324561 2.14844,4.751703 2.14844,11.039524 0,6.110067 -0.12395,6.802522 -1.88172,10.512779 -3.27924,6.92177 -10.31942,13.09714 -17.2174,15.10244 -1.70489,0.49562 -3.36633,1.22314 -3.69208,1.6167 -1.99363,2.40862 -3.29432,20.28621 -3.31836,45.60995 -0.0323,34.09054 2.17412,52.15424 8.61749,70.54812 2.67508,7.63655 6.27975,14.53079 23.7096,45.34666 41.7377,73.79203 68.23403,125.57046 74.74247,146.05984 1.5672,4.93374 1.69106,6.01636 1.66418,14.54716 -0.0326,10.37009 -0.76248,14.69444 -3.34521,19.82127 -5.82922,11.57119 -18.81213,17.66539 -42.62373,20.00767 -3.93895,0.38746 -42.29363,0.58276 -106.43832,0.54197 C 69.028278,479.58922 48.361504,479.4196 42.935185,478.76255 Z M 254.50956,461.85273 c 18.61362,-1.59668 27.66901,-5.34475 29.73966,-12.3094 0.36729,-1.23536 0.81632,-5.18951 0.99785,-8.78701 0.31099,-6.16322 0.22606,-6.84992 -1.47087,-11.89255 -7.17137,-21.3105 -33.82799,-72.87282 -77.62098,-150.14344 -6.2093,-10.95601 -12.66568,-22.59584 -14.34752,-25.8663 -7.33096,-14.25558 -13.12847,-36.61024 -14.66381,-56.54232 -1.02691,-13.33147 -0.37158,-66.62886 0.91625,-74.51793 2.55414,-15.64628 5.94664,-20.6837 15.21784,-22.596551 4.09606,-0.845108 6.78418,-2.44727 8.31295,-4.954644 2.37318,-3.892329 1.06106,-8.858071 -3.16868,-11.991966 -1.66907,-1.236637 -1.94511,-1.24393 -47.08524,-1.24393 h -45.40633 l -1.87596,1.783882 c -3.71939,3.536823 -4.599133,7.792064 -2.36763,11.452014 1.59798,2.620906 4.13198,4.046464 9.19506,5.172893 8.60443,1.914302 11.93388,7.226752 14.3632,22.917822 1.2446,8.03887 1.87676,59.51625 0.89594,72.95743 -1.57712,21.61304 -7.59515,44.50487 -15.67992,59.6445 -1.65914,3.10693 -7.96106,14.34539 -14.004258,24.97436 -26.007954,45.74359 -44.402489,79.73047 -58.894334,108.81683 -10.419196,20.9122 -15.067881,31.24309 -18.060957,40.13735 -1.696936,5.04263 -1.781866,5.72933 -1.470871,11.89255 0.39139,7.75649 1.070911,10.35577 3.401067,13.00967 3.459704,3.94039 13.792223,7.11548 26.090254,8.0173 10.197035,0.74775 198.343859,0.81088 206.987289,0.0694 z"
       id="path4069"
       inkscape:connector-curvature="0" />
  </g>
</svg>
